<svg width="36" height="36" viewBox="0 0 36 36" fill="none" xmlns="http://www.w3.org/2000/svg">
<path fill-rule="evenodd" clip-rule="evenodd" d="M0 18C0 8.05888 8.05888 0 18 0C27.9411 0 36 8.05888 36 18C36 27.9411 27.9411 36 18 36C8.05888 36 0 27.9411 0 18Z" fill="#F9FAFB"/>
<path fill-rule="evenodd" clip-rule="evenodd" d="M25.5011 11.812C26.3272 12.0387 26.9779 12.7067 27.1987 13.5549C27.5999 15.0923 27.5999 18.3 27.5999 18.3C27.5999 18.3 27.5999 21.5076 27.1987 23.0451C26.9779 23.8934 26.3272 24.5613 25.5011 24.7881C24.0039 25.2 17.9999 25.2 17.9999 25.2C17.9999 25.2 11.9959 25.2 10.4986 24.7881C9.67245 24.5613 9.02183 23.8934 8.80103 23.0451C8.3999 21.5076 8.3999 18.3 8.3999 18.3C8.3999 18.3 8.3999 15.0923 8.80103 13.5549C9.02183 12.7067 9.67245 12.0387 10.4986 11.812C11.9959 11.4 17.9999 11.4 17.9999 11.4C17.9999 11.4 24.0039 11.4 25.5011 11.812ZM16.1999 15.6V21.6L20.9999 18.6001L16.1999 15.6Z" fill="#1D2939"/>
</svg>
