<svg width="36" height="36" viewBox="0 0 36 36" fill="none" xmlns="http://www.w3.org/2000/svg">
<path fill-rule="evenodd" clip-rule="evenodd" d="M0 18C0 8.05888 8.05888 0 18 0C27.9411 0 36 8.05888 36 18C36 27.9411 27.9411 36 18 36C8.05888 36 0 27.9411 0 18Z" fill="#F9FAFB"/>
<path fill-rule="evenodd" clip-rule="evenodd" d="M18.0008 8.39999C15.3936 8.39999 15.0664 8.41139 14.0424 8.45799C13.0204 8.50479 12.3227 8.6666 11.7123 8.904C11.0809 9.1492 10.5453 9.47721 10.0117 10.011C9.47771 10.5446 9.14971 11.0802 8.90371 11.7114C8.66571 12.322 8.5037 13.0198 8.4577 14.0415C8.4119 15.0655 8.3999 15.3929 8.3999 18.0001C8.3999 20.6073 8.4115 20.9335 8.4579 21.9575C8.5049 22.9795 8.66671 23.6772 8.90391 24.2876C9.14931 24.919 9.47731 25.4546 10.0111 25.9882C10.5445 26.5222 11.0801 26.851 11.7111 27.0962C12.3219 27.3336 13.0198 27.4954 14.0416 27.5422C15.0656 27.5888 15.3926 27.6002 17.9996 27.6002C20.607 27.6002 20.9332 27.5888 21.9572 27.5422C22.9793 27.4954 23.6777 27.3336 24.2885 27.0962C24.9197 26.851 25.4545 26.5222 25.9879 25.9882C26.5219 25.4546 26.8499 24.919 27.0959 24.2878C27.3319 23.6772 27.4939 22.9793 27.5419 21.9577C27.5879 20.9337 27.5999 20.6073 27.5999 18.0001C27.5999 15.3929 27.5879 15.0657 27.5419 14.0417C27.4939 13.0196 27.3319 12.322 27.0959 11.7116C26.8499 11.0802 26.5219 10.5446 25.9879 10.011C25.4539 9.47701 24.9199 9.149 24.2879 8.904C23.6759 8.6666 22.9779 8.50479 21.9558 8.45799C20.9318 8.41139 20.6058 8.39999 17.9978 8.39999H18.0008ZM17.1396 10.13C17.3952 10.1296 17.6804 10.13 18.0008 10.13C20.564 10.13 20.8678 10.1392 21.88 10.1852C22.816 10.228 23.324 10.3844 23.6624 10.5158C24.1104 10.6898 24.4298 10.8978 24.7656 11.2338C25.1016 11.5698 25.3096 11.8898 25.484 12.3378C25.6154 12.6758 25.772 13.1838 25.8146 14.1198C25.8606 15.1318 25.8706 15.4358 25.8706 17.9979C25.8706 20.5599 25.8606 20.8639 25.8146 21.8759C25.7718 22.8119 25.6154 23.3199 25.484 23.6579C25.31 24.1059 25.1016 24.4249 24.7656 24.7607C24.4296 25.0967 24.1106 25.3047 23.6624 25.4787C23.3244 25.6107 22.816 25.7667 21.88 25.8095C20.868 25.8556 20.564 25.8655 18.0008 25.8655C15.4373 25.8655 15.1335 25.8556 14.1215 25.8095C13.1855 25.7663 12.6775 25.6099 12.3389 25.4785C11.8909 25.3045 11.5709 25.0965 11.2349 24.7605C10.8989 24.4245 10.6909 24.1053 10.5165 23.6571C10.3851 23.3191 10.2285 22.8111 10.1859 21.8751C10.1399 20.8631 10.1307 20.5591 10.1307 17.9955C10.1307 15.4318 10.1399 15.1294 10.1859 14.1174C10.2287 13.1814 10.3851 12.6734 10.5165 12.335C10.6905 11.887 10.8989 11.567 11.2349 11.231C11.5709 10.895 11.8909 10.687 12.3389 10.5126C12.6773 10.3806 13.1855 10.2246 14.1215 10.1816C15.0071 10.1416 15.3503 10.1296 17.1396 10.1276V10.13ZM23.1252 11.724C22.4892 11.724 21.9732 12.2394 21.9732 12.8756C21.9732 13.5116 22.4892 14.0276 23.1252 14.0276C23.7612 14.0276 24.2772 13.5116 24.2772 12.8756C24.2772 12.2396 23.7612 11.724 23.1252 11.724ZM18.0008 13.07C15.2782 13.07 13.0708 15.2774 13.0708 18.0001C13.0708 20.7227 15.2782 22.9291 18.0008 22.9291C20.7234 22.9291 22.9301 20.7227 22.9301 18.0001C22.9301 15.2774 20.7234 13.07 18.0008 13.07ZM18.0008 14.8C19.768 14.8 21.2008 16.2326 21.2008 18.0001C21.2008 19.7673 19.768 21.2001 18.0008 21.2001C16.2334 21.2001 14.8007 19.7673 14.8007 18.0001C14.8007 16.2326 16.2334 14.8 18.0008 14.8Z" fill="#1D2939"/>
</svg>
