<?xml version="1.0" encoding="UTF-8" standalone="no"?>
<svg
   xmlns:dc="http://purl.org/dc/elements/1.1/"
   xmlns:cc="http://creativecommons.org/ns#"
   xmlns:rdf="http://www.w3.org/1999/02/22-rdf-syntax-ns#"
   xmlns:svg="http://www.w3.org/2000/svg"
   xmlns="http://www.w3.org/2000/svg"
   xmlns:sodipodi="http://sodipodi.sourceforge.net/DTD/sodipodi-0.dtd"
   xmlns:inkscape="http://www.inkscape.org/namespaces/inkscape"
   width="53.377079mm"
   height="41.542553mm"
   viewBox="0 0 53.377079 41.542553"
   version="1.1"
   id="svg8"
   inkscape:version="1.0.1 (3bc2e813f5, 2020-09-07)"
   sodipodi:docname="Trans Semarang logo.svg">
  <defs
     id="defs2" />
  <sodipodi:namedview
     id="base"
     pagecolor="#ffffff"
     bordercolor="#666666"
     borderopacity="1.0"
     inkscape:pageopacity="0.0"
     inkscape:pageshadow="2"
     inkscape:zoom="1.8838279"
     inkscape:cx="151.70253"
     inkscape:cy="56.373441"
     inkscape:document-units="mm"
     inkscape:current-layer="layer1"
     inkscape:document-rotation="0"
     showgrid="false"
     showguides="true"
     inkscape:guide-bbox="true"
     inkscape:snap-bbox="true"
     inkscape:bbox-paths="true"
     inkscape:bbox-nodes="true"
     inkscape:snap-bbox-edge-midpoints="true"
     inkscape:snap-bbox-midpoints="true"
     inkscape:object-paths="true"
     inkscape:snap-intersection-paths="true"
     inkscape:snap-midpoints="true"
     inkscape:snap-smooth-nodes="true"
     inkscape:snap-global="false"
     fit-margin-top="0"
     fit-margin-left="0"
     fit-margin-right="0"
     fit-margin-bottom="0"
     inkscape:window-width="1366"
     inkscape:window-height="705"
     inkscape:window-x="-8"
     inkscape:window-y="-8"
     inkscape:window-maximized="1">
    <sodipodi:guide
       position="73.327381,43.054456"
       orientation="0,-1"
       id="guide863" />
  </sodipodi:namedview>
  <metadata
     id="metadata5">
    <rdf:RDF>
      <cc:Work
         rdf:about="">
        <dc:format>image/svg+xml</dc:format>
        <dc:type
           rdf:resource="http://purl.org/dc/dcmitype/StillImage" />
        <dc:title />
      </cc:Work>
    </rdf:RDF>
  </metadata>
  <g
     inkscape:label="Lapis 1"
     inkscape:groupmode="layer"
     id="layer1"
     transform="translate(-78.31146,-53.186417)">
    <rect
       style="opacity:0.984;fill:#ae1f2d;fill-opacity:1;fill-rule:evenodd;stroke-width:0.3;stroke-linecap:round;stroke-linejoin:round"
       id="rect849"
       width="35.279575"
       height="35.279575"
       x="87.360222"
       y="53.186634"
       ry="2.2717927" />
    <g
       aria-label="TRANS SEMARANG"
       id="text899"
       style="font-weight:bold;font-size:5.59048px;line-height:1.25;font-family:'LHF Convecta BASE';-inkscape-font-specification:'LHF Convecta BASE Bold';text-align:end;text-anchor:end;opacity:0.998;fill:#ae1f2d;fill-opacity:0.984314;stroke-width:0.698808"
       transform="translate(-55.94402)">
      <path
         d="m 137.2418,91.327725 h -0.88443 v 2.907158 q 0,0.251135 -0.11192,0.373973 -0.11192,0.120108 -0.28935,0.120108 -0.18016,0 -0.29481,-0.122838 -0.11192,-0.122837 -0.11192,-0.371243 v -2.907158 h -0.88443 q -0.20746,0 -0.30846,-0.09008 -0.101,-0.09281 -0.101,-0.242946 0,-0.155594 0.10373,-0.245675 0.10646,-0.09008 0.30573,-0.09008 h 2.57686 q 0.21019,0 0.31119,0.09281 0.10373,0.09281 0.10373,0.242946 0,0.150135 -0.10373,0.242946 -0.10373,0.09008 -0.31119,0.09008 z"
         style="font-style:normal;font-variant:normal;font-weight:bold;font-stretch:normal;font-family:'Arial Rounded MT Bold';-inkscape-font-specification:'Arial Rounded MT Bold, Bold';fill:#ae1f2d;fill-opacity:0.984314;stroke-width:0.698808"
         id="path901" />
      <path
         d="m 139.22631,92.949182 h -0.28389 v 1.285701 q 0,0.253865 -0.11192,0.373973 -0.11192,0.120108 -0.29208,0.120108 -0.19381,0 -0.30027,-0.125567 -0.10646,-0.125568 -0.10646,-0.368514 v -3.079131 q 0,-0.262054 0.11738,-0.379432 0.11738,-0.117378 0.37943,-0.117378 h 1.31846 q 0.27297,0 0.46678,0.02457 0.19381,0.02184 0.34941,0.09281 0.18835,0.07916 0.33302,0.226567 0.14468,0.147406 0.21838,0.343946 0.0764,0.19381 0.0764,0.412189 0,0.447675 -0.25386,0.715188 -0.25113,0.267513 -0.76432,0.379432 0.21564,0.114648 0.41219,0.338486 0.19654,0.223838 0.3494,0.477702 0.15559,0.251135 0.24022,0.455864 0.0874,0.202 0.0874,0.278433 0,0.07916 -0.0519,0.158324 -0.0491,0.07643 -0.13648,0.120108 -0.0873,0.04641 -0.202,0.04641 -0.13649,0 -0.2293,-0.06551 -0.0928,-0.06278 -0.16105,-0.161054 -0.0655,-0.09827 -0.18017,-0.289351 l -0.32483,-0.540486 q -0.17471,-0.29754 -0.31392,-0.453135 -0.13649,-0.155594 -0.27843,-0.212918 -0.14195,-0.05733 -0.3576,-0.05733 z m 0.46405,-1.681511 h -0.74794 v 1.10008 h 0.72611 q 0.29208,0 0.49135,-0.04914 0.19927,-0.05186 0.303,-0.171972 0.10646,-0.122838 0.10646,-0.335757 0,-0.166513 -0.0846,-0.29208 -0.0846,-0.128298 -0.23476,-0.191081 -0.14195,-0.06005 -0.5596,-0.06005 z"
         style="font-style:normal;font-variant:normal;font-weight:bold;font-stretch:normal;font-family:'Arial Rounded MT Bold';-inkscape-font-specification:'Arial Rounded MT Bold, Bold';fill:#ae1f2d;fill-opacity:0.984314;stroke-width:0.698808"
         id="path903" />
      <path
         d="m 144.71852,94.207586 -0.19108,-0.502269 h -1.62692 l -0.19108,0.513188 q -0.11192,0.30027 -0.19108,0.406729 -0.0792,0.10373 -0.25932,0.10373 -0.15287,0 -0.27025,-0.111919 -0.11737,-0.111919 -0.11737,-0.253864 0,-0.08189 0.0273,-0.169243 0.0273,-0.08735 0.0901,-0.242946 l 1.02365,-2.5987 q 0.0437,-0.111918 0.10373,-0.267513 0.0628,-0.158324 0.13103,-0.262054 0.071,-0.103729 0.18289,-0.166513 0.11465,-0.06551 0.28116,-0.06551 0.16924,0 0.28116,0.06551 0.11465,0.06278 0.1829,0.163784 0.071,0.101 0.11737,0.218378 0.0491,0.114648 0.12284,0.308459 l 1.04549,2.582321 q 0.12283,0.294811 0.12283,0.428567 0,0.139216 -0.11737,0.256594 -0.11465,0.114649 -0.27844,0.114649 -0.0955,0 -0.16378,-0.03549 -0.0682,-0.03276 -0.11465,-0.09008 -0.0464,-0.06005 -0.101,-0.180162 -0.0519,-0.122838 -0.0901,-0.215649 z m -1.60508,-1.110998 h 1.19562 l -0.60327,-1.651485 z"
         style="font-style:normal;font-variant:normal;font-weight:bold;font-stretch:normal;font-family:'Arial Rounded MT Bold';-inkscape-font-specification:'Arial Rounded MT Bold, Bold';fill:#ae1f2d;fill-opacity:0.984314;stroke-width:0.698808"
         id="path905" />
      <path
         d="m 147.23533,91.07659 1.55867,2.358484 v -2.380322 q 0,-0.232027 0.0983,-0.346675 0.101,-0.117378 0.27025,-0.117378 0.1747,0 0.2757,0.117378 0.101,0.114648 0.101,0.346675 v 3.147375 q 0,0.526837 -0.43676,0.526837 -0.10919,0 -0.19654,-0.03276 -0.0874,-0.03003 -0.16378,-0.09827 -0.0764,-0.06824 -0.14195,-0.158324 -0.0655,-0.09281 -0.13103,-0.188351 l -1.52045,-2.331187 v 2.344835 q 0,0.229298 -0.10646,0.346676 -0.10646,0.117378 -0.27297,0.117378 -0.17198,0 -0.27571,-0.117378 -0.10373,-0.120108 -0.10373,-0.346676 v -3.08732 q 0,-0.19654 0.0437,-0.308459 0.0519,-0.122838 0.17197,-0.19927 0.12011,-0.07916 0.25933,-0.07916 0.10918,0 0.18562,0.03549 0.0792,0.03549 0.13648,0.09554 0.0601,0.06005 0.12011,0.155594 0.0628,0.09554 0.1283,0.19927 z"
         style="font-style:normal;font-variant:normal;font-weight:bold;font-stretch:normal;font-family:'Arial Rounded MT Bold';-inkscape-font-specification:'Arial Rounded MT Bold, Bold';fill:#ae1f2d;fill-opacity:0.984314;stroke-width:0.698808"
         id="path907" />
      <path
         d="m 153.46729,93.459641 q 0,0.363054 -0.18835,0.652405 -0.18562,0.289351 -0.54594,0.453134 -0.36033,0.163784 -0.85441,0.163784 -0.59235,0 -0.97724,-0.223838 -0.27297,-0.161053 -0.44494,-0.428567 -0.16925,-0.270243 -0.16925,-0.524107 0,-0.147405 0.101,-0.251135 0.10373,-0.106459 0.26206,-0.106459 0.12829,0 0.21564,0.08189 0.0901,0.08189 0.15287,0.242946 0.0764,0.191081 0.16378,0.319378 0.0901,0.128297 0.25114,0.212919 0.16105,0.08189 0.42311,0.08189 0.36032,0 0.58416,-0.166514 0.22656,-0.169243 0.22656,-0.420378 0,-0.19927 -0.12283,-0.322107 -0.12011,-0.125568 -0.31392,-0.191081 -0.19108,-0.06551 -0.51319,-0.139216 -0.4313,-0.101 -0.72338,-0.234757 -0.28935,-0.136486 -0.46132,-0.368513 -0.16924,-0.234756 -0.16924,-0.581432 0,-0.330296 0.18016,-0.586891 0.18016,-0.256594 0.52137,-0.39308 0.34122,-0.139216 0.80254,-0.139216 0.36852,0 0.63603,0.09281 0.27024,0.09008 0.44768,0.242946 0.17743,0.150135 0.25932,0.316648 0.0819,0.166514 0.0819,0.324838 0,0.144675 -0.10373,0.262053 -0.101,0.114649 -0.25386,0.114649 -0.13922,0 -0.21292,-0.06824 -0.071,-0.07097 -0.1556,-0.229297 -0.10918,-0.226568 -0.26205,-0.352135 -0.15286,-0.128297 -0.49135,-0.128297 -0.31392,0 -0.50773,0.139216 -0.19108,0.136486 -0.19108,0.330297 0,0.120108 0.0655,0.207459 0.0655,0.08735 0.18017,0.150135 0.11464,0.06278 0.23202,0.09827 0.11738,0.03549 0.38762,0.10373 0.33849,0.07916 0.61146,0.174702 0.2757,0.09554 0.46679,0.232027 0.19381,0.136486 0.30027,0.346675 0.10918,0.20746 0.10918,0.510459 z"
         style="font-style:normal;font-variant:normal;font-weight:bold;font-stretch:normal;font-family:'Arial Rounded MT Bold';-inkscape-font-specification:'Arial Rounded MT Bold, Bold';fill:#ae1f2d;fill-opacity:0.984314;stroke-width:0.698808"
         id="path909" />
      <path
         d="m 158.59372,93.459641 q 0,0.363054 -0.18835,0.652405 -0.18562,0.289351 -0.54595,0.453134 -0.36032,0.163784 -0.8544,0.163784 -0.59235,0 -0.97724,-0.223838 -0.27298,-0.161053 -0.44495,-0.428567 -0.16924,-0.270243 -0.16924,-0.524107 0,-0.147405 0.101,-0.251135 0.10373,-0.106459 0.26205,-0.106459 0.1283,0 0.21565,0.08189 0.0901,0.08189 0.15287,0.242946 0.0764,0.191081 0.16378,0.319378 0.0901,0.128297 0.25113,0.212919 0.16106,0.08189 0.42311,0.08189 0.36033,0 0.58416,-0.166514 0.22657,-0.169243 0.22657,-0.420378 0,-0.19927 -0.12284,-0.322107 -0.12011,-0.125568 -0.31392,-0.191081 -0.19108,-0.06551 -0.51318,-0.139216 -0.4313,-0.101 -0.72338,-0.234757 -0.28935,-0.136486 -0.46133,-0.368513 -0.16924,-0.234756 -0.16924,-0.581432 0,-0.330296 0.18016,-0.586891 0.18016,-0.256594 0.52138,-0.39308 0.34122,-0.139216 0.80254,-0.139216 0.36851,0 0.63603,0.09281 0.27024,0.09008 0.44767,0.242946 0.17743,0.150135 0.25933,0.316648 0.0819,0.166514 0.0819,0.324838 0,0.144675 -0.10373,0.262053 -0.101,0.114649 -0.25387,0.114649 -0.13921,0 -0.21292,-0.06824 -0.071,-0.07097 -0.15559,-0.229297 -0.10919,-0.226568 -0.26205,-0.352135 -0.15287,-0.128297 -0.49135,-0.128297 -0.31392,0 -0.50773,0.139216 -0.19108,0.136486 -0.19108,0.330297 0,0.120108 0.0655,0.207459 0.0655,0.08735 0.18016,0.150135 0.11465,0.06278 0.23203,0.09827 0.11738,0.03549 0.38762,0.10373 0.33849,0.07916 0.61146,0.174702 0.2757,0.09554 0.46678,0.232027 0.19381,0.136486 0.30027,0.346675 0.10919,0.20746 0.10919,0.510459 z"
         style="font-style:normal;font-variant:normal;font-weight:bold;font-stretch:normal;font-family:'Arial Rounded MT Bold';-inkscape-font-specification:'Arial Rounded MT Bold, Bold';fill:#ae1f2d;fill-opacity:0.984314;stroke-width:0.698808"
         id="path911" />
      <path
         d="m 161.91853,91.284049 h -1.82619 v 0.982702 h 1.68151 q 0.18562,0 0.2757,0.08462 0.0928,0.08189 0.0928,0.218378 0,0.136487 -0.0901,0.223838 -0.0901,0.08462 -0.27843,0.08462 h -1.68151 v 1.138296 h 1.88897 q 0.19108,0 0.28662,0.09008 0.0983,0.08735 0.0983,0.234757 0,0.141946 -0.0983,0.232027 -0.0955,0.08735 -0.28662,0.08735 h -2.20289 q -0.26478,0 -0.38216,-0.117378 -0.11465,-0.117379 -0.11465,-0.379432 v -3.008159 q 0,-0.174702 0.0519,-0.283892 0.0519,-0.111918 0.16105,-0.161053 0.11192,-0.05187 0.28389,-0.05187 h 2.14011 q 0.19381,0 0.28662,0.08735 0.0955,0.08462 0.0955,0.223838 0,0.141945 -0.0955,0.229297 -0.0928,0.08462 -0.28662,0.08462 z"
         style="font-style:normal;font-variant:normal;font-weight:bold;font-stretch:normal;font-family:'Arial Rounded MT Bold';-inkscape-font-specification:'Arial Rounded MT Bold, Bold';fill:#ae1f2d;fill-opacity:0.984314;stroke-width:0.698808"
         id="path913" />
      <path
         d="m 164.36163,94.057451 -0.64148,-2.549564 v 2.762483 q 0,0.229297 -0.10373,0.343945 -0.101,0.114649 -0.27025,0.114649 -0.16378,0 -0.26751,-0.111919 -0.10373,-0.114648 -0.10373,-0.346675 v -3.166483 q 0,-0.262054 0.13649,-0.352135 0.13648,-0.09281 0.36851,-0.09281 h 0.25114 q 0.22656,0 0.32756,0.04095 0.10373,0.04095 0.15287,0.147405 0.0491,0.106459 0.11192,0.346675 l 0.58143,2.191971 0.58143,-2.191971 q 0.0628,-0.240216 0.11192,-0.346675 0.0491,-0.106459 0.15013,-0.147405 0.10373,-0.04095 0.3303,-0.04095 h 0.25114 q 0.23202,0 0.36851,0.09281 0.13648,0.09008 0.13648,0.352135 v 3.166483 q 0,0.229297 -0.10373,0.343945 -0.10099,0.114649 -0.27297,0.114649 -0.16105,0 -0.26478,-0.114649 -0.10373,-0.114648 -0.10373,-0.343945 v -2.762483 l -0.64149,2.549564 q -0.0628,0.248405 -0.10373,0.365784 -0.0382,0.114648 -0.14467,0.210189 -0.10646,0.09554 -0.29481,0.09554 -0.14195,0 -0.24022,-0.06278 -0.0983,-0.06005 -0.15286,-0.155594 -0.0546,-0.09554 -0.0874,-0.210189 -0.03,-0.117378 -0.0628,-0.242946 z"
         style="font-style:normal;font-variant:normal;font-weight:bold;font-stretch:normal;font-family:'Arial Rounded MT Bold';-inkscape-font-specification:'Arial Rounded MT Bold, Bold';fill:#ae1f2d;fill-opacity:0.984314;stroke-width:0.698808"
         id="path915" />
      <path
         d="m 170.22781,94.207586 -0.19108,-0.502269 h -1.62691 l -0.19108,0.513188 q -0.11192,0.30027 -0.19108,0.406729 -0.0792,0.10373 -0.25933,0.10373 -0.15286,0 -0.27024,-0.111919 -0.11738,-0.111919 -0.11738,-0.253864 0,-0.08189 0.0273,-0.169243 0.0273,-0.08735 0.0901,-0.242946 l 1.02365,-2.5987 q 0.0437,-0.111918 0.10373,-0.267513 0.0628,-0.158324 0.13102,-0.262054 0.071,-0.103729 0.18289,-0.166513 0.11465,-0.06551 0.28117,-0.06551 0.16924,0 0.28116,0.06551 0.11465,0.06278 0.18289,0.163784 0.071,0.101 0.11738,0.218378 0.0491,0.114648 0.12284,0.308459 l 1.04548,2.582321 q 0.12284,0.294811 0.12284,0.428567 0,0.139216 -0.11738,0.256594 -0.11465,0.114649 -0.27843,0.114649 -0.0955,0 -0.16379,-0.03549 -0.0682,-0.03276 -0.11464,-0.09008 -0.0464,-0.06005 -0.101,-0.180162 -0.0519,-0.122838 -0.0901,-0.215649 z m -1.60507,-1.110998 h 1.19562 l -0.60327,-1.651485 z"
         style="font-style:normal;font-variant:normal;font-weight:bold;font-stretch:normal;font-family:'Arial Rounded MT Bold';-inkscape-font-specification:'Arial Rounded MT Bold, Bold';fill:#ae1f2d;fill-opacity:0.984314;stroke-width:0.698808"
         id="path917" />
      <path
         d="m 172.77738,92.949182 h -0.28389 v 1.285701 q 0,0.253865 -0.11192,0.373973 -0.11192,0.120108 -0.29208,0.120108 -0.19381,0 -0.30027,-0.125567 -0.10646,-0.125568 -0.10646,-0.368514 v -3.079131 q 0,-0.262054 0.11738,-0.379432 0.11737,-0.117378 0.37943,-0.117378 h 1.31846 q 0.27297,0 0.46678,0.02457 0.19381,0.02184 0.3494,0.09281 0.18835,0.07916 0.33303,0.226567 0.14468,0.147406 0.21838,0.343946 0.0764,0.19381 0.0764,0.412189 0,0.447675 -0.25386,0.715188 -0.25114,0.267513 -0.76433,0.379432 0.21565,0.114648 0.41219,0.338486 0.19654,0.223838 0.34941,0.477702 0.15559,0.251135 0.24021,0.455864 0.0874,0.202 0.0874,0.278433 0,0.07916 -0.0519,0.158324 -0.0491,0.07643 -0.13649,0.120108 -0.0873,0.04641 -0.202,0.04641 -0.13648,0 -0.22929,-0.06551 -0.0928,-0.06278 -0.16106,-0.161054 -0.0655,-0.09827 -0.18016,-0.289351 L 173.7273,93.67257 q -0.1747,-0.29754 -0.31392,-0.453135 -0.13648,-0.155594 -0.27843,-0.212918 -0.14194,-0.05733 -0.35759,-0.05733 z m 0.46405,-1.681511 h -0.74794 v 1.10008 h 0.7261 q 0.29208,0 0.49135,-0.04914 0.19927,-0.05186 0.303,-0.171972 0.10646,-0.122838 0.10646,-0.335757 0,-0.166513 -0.0846,-0.29208 -0.0846,-0.128298 -0.23475,-0.191081 -0.14195,-0.06005 -0.5596,-0.06005 z"
         style="font-style:normal;font-variant:normal;font-weight:bold;font-stretch:normal;font-family:'Arial Rounded MT Bold';-inkscape-font-specification:'Arial Rounded MT Bold, Bold';fill:#ae1f2d;fill-opacity:0.984314;stroke-width:0.698808"
         id="path919" />
      <path
         d="m 178.26959,94.207586 -0.19108,-0.502269 h -1.62692 l -0.19108,0.513188 q -0.11192,0.30027 -0.19108,0.406729 -0.0792,0.10373 -0.25932,0.10373 -0.15287,0 -0.27025,-0.111919 -0.11738,-0.111919 -0.11738,-0.253864 0,-0.08189 0.0273,-0.169243 0.0273,-0.08735 0.0901,-0.242946 l 1.02365,-2.5987 q 0.0437,-0.111918 0.10373,-0.267513 0.0628,-0.158324 0.13103,-0.262054 0.071,-0.103729 0.18289,-0.166513 0.11465,-0.06551 0.28116,-0.06551 0.16924,0 0.28116,0.06551 0.11465,0.06278 0.18289,0.163784 0.071,0.101 0.11738,0.218378 0.0491,0.114648 0.12284,0.308459 l 1.04549,2.582321 q 0.12283,0.294811 0.12283,0.428567 0,0.139216 -0.11738,0.256594 -0.11464,0.114649 -0.27843,0.114649 -0.0955,0 -0.16378,-0.03549 -0.0682,-0.03276 -0.11465,-0.09008 -0.0464,-0.06005 -0.101,-0.180162 -0.0519,-0.122838 -0.0901,-0.215649 z m -1.60508,-1.110998 h 1.19562 l -0.60327,-1.651485 z"
         style="font-style:normal;font-variant:normal;font-weight:bold;font-stretch:normal;font-family:'Arial Rounded MT Bold';-inkscape-font-specification:'Arial Rounded MT Bold, Bold';fill:#ae1f2d;fill-opacity:0.984314;stroke-width:0.698808"
         id="path921" />
      <path
         d="m 180.7864,91.07659 1.55867,2.358484 v -2.380322 q 0,-0.232027 0.0983,-0.346675 0.101,-0.117378 0.27024,-0.117378 0.17471,0 0.27571,0.117378 0.101,0.114648 0.101,0.346675 v 3.147375 q 0,0.526837 -0.43676,0.526837 -0.10919,0 -0.19654,-0.03276 -0.0873,-0.03003 -0.16379,-0.09827 -0.0764,-0.06824 -0.14194,-0.158324 -0.0655,-0.09281 -0.13103,-0.188351 l -1.52046,-2.331187 v 2.344835 q 0,0.229298 -0.10645,0.346676 -0.10646,0.117378 -0.27298,0.117378 -0.17197,0 -0.2757,-0.117378 -0.10373,-0.120108 -0.10373,-0.346676 v -3.08732 q 0,-0.19654 0.0437,-0.308459 0.0519,-0.122838 0.17197,-0.19927 0.12011,-0.07916 0.25932,-0.07916 0.10919,0 0.18562,0.03549 0.0792,0.03549 0.13649,0.09554 0.06,0.06005 0.12011,0.155594 0.0628,0.09554 0.1283,0.19927 z"
         style="font-style:normal;font-variant:normal;font-weight:bold;font-stretch:normal;font-family:'Arial Rounded MT Bold';-inkscape-font-specification:'Arial Rounded MT Bold, Bold';fill:#ae1f2d;fill-opacity:0.984314;stroke-width:0.698808"
         id="path923" />
      <path
         d="m 187.63255,93.033804 v 0.767053 q 0,0.152865 -0.03,0.245675 -0.03,0.09008 -0.11191,0.163784 -0.0792,0.0737 -0.20473,0.141946 -0.36306,0.19654 -0.69881,0.286621 -0.33576,0.09008 -0.73157,0.09008 -0.46132,0 -0.84076,-0.141946 -0.37943,-0.141946 -0.64694,-0.412188 -0.26752,-0.270243 -0.41219,-0.655135 -0.14195,-0.384891 -0.14195,-0.859864 0,-0.466783 0.13922,-0.854404 0.13922,-0.387621 0.40946,-0.657864 0.27024,-0.270243 0.65786,-0.412189 0.38762,-0.144675 0.87897,-0.144675 0.404,0 0.71519,0.109189 0.31119,0.106459 0.505,0.270243 0.19381,0.163783 0.29208,0.346675 0.0983,0.182892 0.0983,0.324837 0,0.152865 -0.11465,0.262054 -0.11191,0.106459 -0.27024,0.106459 -0.0873,0 -0.16924,-0.04094 -0.0792,-0.04095 -0.13376,-0.114649 -0.15013,-0.234756 -0.25386,-0.354864 -0.10373,-0.120108 -0.28116,-0.202 -0.17471,-0.08189 -0.44768,-0.08189 -0.28116,0 -0.50227,0.09827 -0.22111,0.09554 -0.37943,0.281162 -0.1556,0.182892 -0.24022,0.450405 -0.0819,0.267513 -0.0819,0.59235 0,0.70427 0.32211,1.083702 0.32484,0.379432 0.90354,0.379432 0.28116,0 0.52684,-0.0737 0.2484,-0.0737 0.50227,-0.210189 V 93.16756 h -0.62784 q -0.22657,0 -0.34395,-0.06824 -0.11465,-0.06824 -0.11465,-0.232026 0,-0.133757 0.0955,-0.221108 0.0983,-0.08735 0.26479,-0.08735 h 0.91992 q 0.16924,0 0.28662,0.03003 0.11738,0.03003 0.18835,0.133757 0.0737,0.10373 0.0737,0.311189 z"
         style="font-style:normal;font-variant:normal;font-weight:bold;font-stretch:normal;font-family:'Arial Rounded MT Bold';-inkscape-font-specification:'Arial Rounded MT Bold, Bold';fill:#ae1f2d;fill-opacity:0.984314;stroke-width:0.698808"
         id="path925" />
    </g>
    <path
       id="path910"
       style="color:#000000;font-style:normal;font-variant:normal;font-weight:normal;font-stretch:normal;font-size:medium;line-height:normal;font-family:sans-serif;font-variant-ligatures:normal;font-variant-position:normal;font-variant-caps:normal;font-variant-numeric:normal;font-variant-alternates:normal;font-variant-east-asian:normal;font-feature-settings:normal;font-variation-settings:normal;text-indent:0;text-align:start;text-decoration:none;text-decoration-line:none;text-decoration-style:solid;text-decoration-color:#000000;letter-spacing:normal;word-spacing:normal;text-transform:none;writing-mode:lr-tb;direction:ltr;text-orientation:mixed;dominant-baseline:auto;baseline-shift:baseline;text-anchor:start;white-space:normal;shape-padding:0;shape-margin:0;inline-size:0;clip-rule:nonzero;display:inline;overflow:visible;visibility:visible;isolation:auto;mix-blend-mode:normal;color-interpolation:sRGB;color-interpolation-filters:linearRGB;solid-color:#000000;solid-opacity:1;vector-effect:none;fill:#ffffff;fill-opacity:1;fill-rule:nonzero;stroke:none;stroke-width:17.3393;stroke-linecap:butt;stroke-linejoin:miter;stroke-miterlimit:4;stroke-dasharray:none;stroke-dashoffset:0;stroke-opacity:1;color-rendering:auto;image-rendering:auto;shape-rendering:auto;text-rendering:auto;enable-background:accumulate;stop-color:#000000"
       d="M 56.861328 0 L 34.199219 29.425781 L 34.199219 57.835938 L 40.041016 50.251953 L 116.31055 109.04883 A 8.6676197 8.6716165 0 0 0 128.4707 107.46875 A 8.6676197 8.6716165 0 0 0 126.89062 95.3125 L 50.621094 36.515625 L 78.742188 0 L 56.861328 0 z M 97.660156 5.3320312 C 96.512352 5.3172911 95.365322 5.3838106 94.228516 5.53125 C 88.165851 6.3175278 82.396849 9.3929256 78.414062 14.564453 C 70.448459 24.907557 72.40969 40.009238 82.748047 47.978516 L 131.17773 85.316406 C 139.53903 91.761638 141.05947 103.50797 134.61719 111.87305 C 128.17494 120.23809 116.43345 121.75771 108.07227 115.3125 L 40.138672 62.943359 L 34.199219 70.65625 L 34.199219 80.255859 L 97.492188 129.05078 C 99.751426 130.79231 102.16118 132.2138 104.66016 133.3418 L 134.53906 133.3418 C 139.81534 130.97888 144.59422 127.33072 148.34766 122.45703 C 160.50802 106.66724 157.53833 83.74405 141.75586 71.578125 L 93.326172 34.240234 C 90.40917 31.991665 89.896997 28.066856 92.144531 25.148438 C 94.392027 22.230147 98.325224 21.716305 101.24219 23.964844 L 167.54102 75.078125 L 167.54102 53.185547 L 111.82031 10.228516 C 107.62039 6.9909723 102.63398 5.395138 97.660156 5.3320312 z "
       transform="matrix(0.26458333,0,0,0.26458333,78.31146,53.186417)" />
  </g>
</svg>
