<svg width="68" height="68" viewBox="0 0 68 68" fill="none" xmlns="http://www.w3.org/2000/svg">
<rect width="68" height="68" rx="34" fill="#F9FAFB"/>
<path d="M46.7107 27.4822C46.7311 27.7665 46.731 28.0508 46.731 28.335C46.731 37.0051 40.1321 46.995 28.0711 46.995C24.3553 46.995 20.9036 45.9188 18 44.0508C18.5279 44.1117 19.0355 44.132 19.5838 44.132C22.6497 44.132 25.4721 43.0965 27.7259 41.33C24.8427 41.2691 22.4264 39.3808 21.5939 36.7818C22 36.8426 22.4061 36.8833 22.8325 36.8833C23.4213 36.8833 24.0102 36.802 24.5584 36.6599C21.5533 36.0508 19.2994 33.4112 19.2994 30.2234V30.1422C20.1725 30.6295 21.1878 30.934 22.2639 30.9746C20.4974 29.7969 19.3401 27.7868 19.3401 25.5126C19.3401 24.2944 19.6649 23.1776 20.2334 22.203C23.4619 26.1827 28.3147 28.7817 33.7563 29.066C33.6548 28.5787 33.5939 28.0711 33.5939 27.5635C33.5939 23.9492 36.5178 21.0051 40.1523 21.0051C42.0406 21.0051 43.7462 21.7969 44.9442 23.0761C46.4264 22.7919 47.8477 22.2436 49.1066 21.4924C48.6192 23.0153 47.5837 24.2945 46.2234 25.1066C47.5432 24.9645 48.8224 24.599 50 24.0914C49.1067 25.3908 47.9899 26.5482 46.7107 27.4822Z" fill="#1DA1F2"/>
</svg>
