<?xml version="1.0" encoding="UTF-8"?>
<svg xmlns="http://www.w3.org/2000/svg" xmlns:xlink="http://www.w3.org/1999/xlink" width="68px" height="68px" viewBox="0 0 68 68" version="1.1">
<g id="surface1">
<path style=" stroke:none;fill-rule:nonzero;fill:rgb(25.098039%,76.470588%,31.764706%);fill-opacity:1;" d="M 24.34375 11.390625 C 28.355469 9.574219 32.886719 8.953125 37.265625 9.535156 C 41.710938 10.117188 45.96875 12.011719 49.367188 14.921875 C 52.632812 17.660156 55.121094 21.285156 56.496094 25.292969 C 58.070312 29.855469 58.195312 34.90625 56.847656 39.511719 C 55.351562 44.625 52.175781 49.089844 47.832031 52.195312 C 45.046875 54.179688 41.863281 55.542969 38.5 56.191406 C 32.789062 57.273438 26.722656 56.21875 21.773438 53.210938 C 21.460938 53.078125 21.160156 52.738281 20.792969 52.886719 L 12.105469 55.121094 L 14.414062 46.671875 C 14.550781 46.375 14.28125 46.132812 14.144531 45.859375 C 11.519531 41.878906 10.160156 37.085938 10.296875 32.320312 C 10.429688 22.574219 16.6875 14.855469 24.304688 11.335938 "/>
<path style=" stroke:none;fill-rule:nonzero;fill:rgb(98.823529%,98.823529%,98.823529%);fill-opacity:1;" d="M 25.566406 19.785156 C 26.207031 19.796875 26.628906 20.367188 26.875 20.867188 C 27.691406 22.628906 28.34375 24.441406 29.117188 26.214844 C 29.28125 26.582031 29.390625 26.988281 29.253906 27.378906 C 28.84375 28.53125 27.894531 29.355469 27.132812 30.277344 C 26.859375 30.589844 26.886719 31.035156 27.105469 31.359375 C 29.195312 35.402344 32.777344 38.484375 37.101562 39.957031 C 37.507812 40.132812 38 40.09375 38.285156 39.742188 C 39.097656 38.835938 39.871094 37.890625 40.597656 36.910156 C 41.222656 36.097656 41.765625 36.328125 42.582031 36.667969 L 47.804688 39.171875 C 48.210938 39.347656 48.621094 39.644531 48.578125 40.121094 C 48.851562 43.640625 45.683594 46.375 42.363281 46.484375 C 33.796875 45.859375 27.949219 41.121094 23.730469 35.652344 C 22.34375 33.730469 20.875 31.792969 20.113281 29.503906 C 19.394531 27.5 19.367188 25.214844 20.222656 23.238281 C 21.542969 20.597656 22.699219 19.582031 25.609375 19.742188 Z M 17.542969 9.683594 C 23.828125 5.214844 31.960938 3.511719 39.574219 5.027344 C 44.507812 6 49.09375 8.253906 52.863281 11.566406 C 58.199219 16.222656 61.601562 22.691406 62.410156 29.707031 C 62.953125 34.339844 62.34375 39.035156 60.640625 43.382812 C 58.628906 48.527344 55.066406 53.050781 50.550781 56.246094 C 46.199219 59.335938 41.0625 61.140625 35.726562 61.457031 C 30.386719 61.785156 25.0625 60.609375 20.359375 58.074219 L 5.128906 62 L 9.140625 47.375 C 9.222656 47.199219 9.097656 47.050781 9.003906 46.917969 C 5.992188 41.566406 4.800781 35.394531 5.601562 29.316406 C 6.675781 21.414062 10.980469 14.308594 17.503906 9.683594 M 24.261719 11.390625 C 19.707031 13.421875 15.832031 16.914062 13.355469 21.234375 C 11.398438 24.617188 10.308594 28.476562 10.226562 32.375 C 10.089844 37.140625 11.453125 41.921875 14.074219 45.914062 C 14.210938 46.15625 14.457031 46.414062 14.347656 46.726562 L 12.035156 55.175781 C 14.933594 54.445312 17.828125 53.660156 20.738281 52.925781 C 21.105469 52.792969 21.421875 53.089844 21.71875 53.253906 C 26.734375 56.265625 32.691406 57.332031 38.445312 56.246094 C 41.8125 55.605469 44.996094 54.242188 47.777344 52.25 C 52.121094 49.144531 55.296875 44.675781 56.792969 39.566406 C 58.140625 34.902344 58.015625 29.9375 56.441406 25.347656 C 55.046875 21.316406 52.582031 17.734375 49.3125 14.976562 C 45.875 12.066406 41.667969 10.199219 37.195312 9.589844 C 32.84375 9.007812 28.300781 9.628906 24.277344 11.445312 Z M 24.261719 11.390625 "/>
</g>
</svg>
