<svg width="68" height="68" viewBox="0 0 68 68" fill="none" xmlns="http://www.w3.org/2000/svg">
<g clip-path="url(#clip0_1_13)">
<circle cx="34" cy="34" r="34" fill="#F9FAFB"/>
<path d="M13 56L16.0362 44.9583C14.1659 41.7308 13.1746 38.0626 13.1808 34.3076C13.1808 22.5583 22.7883 13 34.5904 13C40.3138 13.0062 45.6942 15.222 49.7342 19.2501C53.7742 23.2783 56 28.6347 56 34.3262C55.9938 46.0755 46.3863 55.6338 34.5904 55.6338H34.5779C30.9993 55.6338 27.4767 54.7338 24.347 53.0394L13 56Z" fill="white"/>
<path d="M34.5966 16.5999C24.7771 16.5999 16.7969 24.5445 16.7906 34.3076C16.7906 37.653 17.7321 40.9177 19.5152 43.7356L19.9391 44.4059L18.1373 50.9415L24.8769 49.1788L25.5253 49.5637C28.2561 51.1774 31.3858 52.0339 34.5842 52.0339H34.5904C44.3974 52.0339 52.3777 44.0893 52.3839 34.3262C52.3839 29.5905 50.5385 25.1403 47.178 21.7949C43.8176 18.4495 39.3474 16.6061 34.5966 16.5999Z" fill="url(#paint0_linear_1_13)"/>
<path fill-rule="evenodd" clip-rule="evenodd" d="M29.2411 25.401C28.8359 24.5134 28.4182 24.4948 28.0316 24.4824C27.7199 24.47 27.3645 24.47 27.0091 24.47C26.6538 24.47 26.0739 24.6003 25.5814 25.1341C25.0951 25.6679 23.711 26.9589 23.711 29.5781C23.711 32.1973 25.6251 34.7297 25.8931 35.0834C26.1612 35.4372 29.5965 40.986 35.0331 43.1211C39.5531 44.8962 40.4696 44.5424 41.4547 44.4555C42.4335 44.3687 44.6156 43.1646 45.0645 41.9232C45.5072 40.6819 45.5072 39.6143 45.3763 39.3909C45.2391 39.1674 44.8837 39.0371 44.3475 38.7702C43.8176 38.5033 41.1866 37.2123 40.6941 37.0385C40.2015 36.8585 39.8462 36.7717 39.4908 37.3054C39.1354 37.8392 38.1067 39.0371 37.795 39.3909C37.4833 39.7447 37.1715 39.7943 36.6353 39.5274C36.1054 39.2605 34.3784 38.6957 32.3335 36.8834C30.7437 35.4682 29.6713 33.7304 29.3596 33.1966C29.0478 32.6628 29.3284 32.3711 29.5965 32.1104C29.8334 31.8684 30.1264 31.4835 30.3945 31.1732C30.6626 30.8629 30.7561 30.6394 30.9307 30.2857C31.1115 29.9319 31.018 29.6215 30.8871 29.3546C30.7561 29.0878 29.7149 26.4561 29.2411 25.401Z" fill="white"/>
</g>
<defs>
<linearGradient id="paint0_linear_1_13" x1="34.064" y1="15.5825" x2="34.2821" y2="52.3272" gradientUnits="userSpaceOnUse">
<stop stop-color="#57D163"/>
<stop offset="1" stop-color="#23B33A"/>
</linearGradient>
<clipPath id="clip0_1_13">
<rect width="68" height="68" fill="white"/>
</clipPath>
</defs>
</svg>
