<svg width="42" height="60" viewBox="0 0 42 60" fill="none" xmlns="http://www.w3.org/2000/svg">
<path d="M21.2943 58.4537C24.7491 58.4537 27.5497 55.6392 27.5497 52.1672C27.5497 48.6955 24.7491 45.881 21.2943 45.881C17.8396 45.881 15.0391 48.6955 15.0391 52.1672C15.0391 55.6392 17.8396 58.4537 21.2943 58.4537Z" fill="#263238"/>
<path fill-rule="evenodd" clip-rule="evenodd" d="M21.2937 47.4274C18.6887 47.4274 16.5769 49.5497 16.5769 52.1676C16.5769 54.7856 18.6887 56.9078 21.2937 56.9078C23.8987 56.9078 26.0105 54.7856 26.0105 52.1676C26.0105 49.5497 23.8987 47.4274 21.2937 47.4274ZM13.5 52.1676C13.5 47.8419 16.9894 44.3351 21.2937 44.3351C25.5981 44.3351 29.0875 47.8419 29.0875 52.1676C29.0875 56.4934 25.5981 60.0001 21.2937 60.0001C16.9894 60.0001 13.5 56.4934 13.5 52.1676Z" fill="white"/>
<path fill-rule="evenodd" clip-rule="evenodd" d="M19.7773 33.1638H22.5673V51.0574H19.7773V33.1638Z" fill="#263238"/>
<circle cx="21" cy="21" r="19.25" fill="#AF2330"/>
<path fill-rule="evenodd" clip-rule="evenodd" d="M13.8407 17.7124C15.6217 20.589 18.3261 21.9601 18.3427 21.9685V30.625H25.9178V18.6503C25.9178 18.6503 25.0603 18.2896 22.1303 18.2896C19.2107 18.2896 18.3488 18.6477 18.3428 18.6503C18.3357 18.6449 17.48 17.9935 16.1989 16.1976C15.6551 15.4352 15.4211 14.4548 15.2116 13.5772C14.8859 12.2126 14.6196 11.0968 13.3404 11.4366C11.9825 11.7972 11.6252 13.4563 13.8407 17.7124ZM22.2019 17.9289C23.7806 17.9289 25.0604 16.637 25.0604 15.0434C25.0604 13.4498 23.7806 12.1579 22.2019 12.1579C20.6232 12.1579 19.3434 13.4498 19.3434 15.0434C19.3434 16.637 20.6232 17.9289 22.2019 17.9289ZM25.9181 18.6503C25.9181 18.6503 29.92 21.7522 29.92 25.4312C29.92 27.7942 26.99 30.6251 26.99 30.6251H25.9181V27.7396C25.9181 27.7396 27.204 26.3818 27.2759 25.2869C27.3576 24.0422 25.9181 22.4015 25.9181 22.4015V18.6503Z" fill="white"/>
</svg>
